<svg width="1024" height="1024" viewBox="0 0 1024 1024" fill="none" xmlns="http://www.w3.org/2000/svg">
<rect width="1024" height="1024" fill="white"/>
<path d="M706.778 308.41L884.328 401.173C886.776 402.452 887.723 405.473 886.445 407.92L683.137 797.054C682.658 797.972 681.904 798.719 680.982 799.19L549.944 866.197C548.501 866.935 546.789 866.927 545.352 866.177L524.311 855.183C522.925 854.46 521.958 853.13 521.697 851.589L496.396 702.488C496.213 701.412 496.387 700.305 496.893 699.337L700.031 310.526C701.27 308.155 704.144 307.192 706.548 308.297L706.778 308.41Z" fill="white" stroke="#B21739" stroke-width="30"/>
<line x1="626.981" y1="432.723" x2="829.448" y2="539.16" stroke="#B21739" stroke-width="30"/>
<path d="M508.688 875.844L457.018 867.433L413.125 845.455L375.309 824.175L344.5 796L318 760.5L295 719L284 688L271 646.5L260.643 610.5L256 573.5L260.643 533.75L275.193 490.888L311.844 451.898L362.726 437.011L407.999 437.597L447.288 423.756L473.506 385.828L488.146 350.141L495.641 300.012L494.994 248.581L494.393 200.738L472.669 155.768C471.272 152.874 469.418 150.224 467.18 147.919L427.051 106.588" stroke="#B21739" stroke-width="25"/>
</svg>
